<mxfile host="Electron" modified="2024-07-06T21:43:26.311Z" agent="Mozilla/5.0 (Macintosh; Intel Mac OS X 10_15_7) AppleWebKit/537.36 (KHTML, like Gecko) draw.io/24.6.1 Chrome/124.0.6367.207 Electron/30.0.6 Safari/537.36" etag="6q7I2txvn3MptWqZApzc" version="24.6.1" type="device">
  <diagram name="第 1 页" id="JD-DyB5TE8ffOVKspvN3">
    <mxGraphModel dx="1434" dy="769" grid="1" gridSize="10" guides="1" tooltips="1" connect="1" arrows="0" fold="1" page="1" pageScale="1" pageWidth="827" pageHeight="1169" background="none" math="0" shadow="0">
      <root>
        <mxCell id="0" />
        <mxCell id="1" parent="0" />
        <mxCell id="Yc0Fu8YplYlWr9wA8VVT-9" value="" style="rounded=0;whiteSpace=wrap;html=1;fillColor=#f9f7ed;strokeColor=#36393d;" parent="1" vertex="1">
          <mxGeometry x="180" y="130" width="280" height="220" as="geometry" />
        </mxCell>
        <mxCell id="Yc0Fu8YplYlWr9wA8VVT-12" value="Initial configuration loading" style="text;html=1;align=center;verticalAlign=middle;whiteSpace=wrap;rounded=0;" parent="1" vertex="1">
          <mxGeometry x="224" y="140" width="190" height="30" as="geometry" />
        </mxCell>
        <mxCell id="Yc0Fu8YplYlWr9wA8VVT-16" value="" style="edgeStyle=orthogonalEdgeStyle;rounded=0;orthogonalLoop=1;jettySize=auto;html=1;strokeWidth=2;" parent="1" source="Yc0Fu8YplYlWr9wA8VVT-13" target="Yc0Fu8YplYlWr9wA8VVT-14" edge="1">
          <mxGeometry relative="1" as="geometry" />
        </mxCell>
        <mxCell id="Yc0Fu8YplYlWr9wA8VVT-13" value="reloadConfig" style="rounded=1;whiteSpace=wrap;html=1;fillColor=#ffcccc;strokeColor=#36393d;" parent="1" vertex="1">
          <mxGeometry x="260" y="180" width="120" height="60" as="geometry" />
        </mxCell>
        <mxCell id="Yc0Fu8YplYlWr9wA8VVT-21" style="edgeStyle=orthogonalEdgeStyle;rounded=0;orthogonalLoop=1;jettySize=auto;html=1;exitX=1;exitY=0.5;exitDx=0;exitDy=0;entryX=0.5;entryY=0;entryDx=0;entryDy=0;fillColor=#ffcccc;strokeColor=#000000;strokeWidth=2;" parent="1" source="Yc0Fu8YplYlWr9wA8VVT-14" target="Yc0Fu8YplYlWr9wA8VVT-17" edge="1">
          <mxGeometry relative="1" as="geometry">
            <mxPoint x="600" y="110" as="targetPoint" />
            <Array as="points">
              <mxPoint x="490" y="310" />
              <mxPoint x="490" y="100" />
              <mxPoint x="665" y="100" />
            </Array>
          </mxGeometry>
        </mxCell>
        <mxCell id="Yc0Fu8YplYlWr9wA8VVT-14" value="遍历reloaders，&lt;br&gt;执行每个元素的ApplyConfig方法,&lt;br&gt;其中name为scrape_sd即为服务发现组件" style="rounded=1;whiteSpace=wrap;html=1;fillColor=#ffcccc;strokeColor=#36393d;" parent="1" vertex="1">
          <mxGeometry x="200" y="280" width="240" height="60" as="geometry" />
        </mxCell>
        <mxCell id="Yc0Fu8YplYlWr9wA8VVT-17" value="" style="rounded=0;whiteSpace=wrap;html=1;fillColor=#ffff88;strokeColor=#36393d;enumerate=1;" parent="1" vertex="1">
          <mxGeometry x="530" y="130" width="270" height="620" as="geometry" />
        </mxCell>
        <mxCell id="Yc0Fu8YplYlWr9wA8VVT-20" value="discoveryManagerScrape.ApplyConfig(c)" style="text;html=1;align=center;verticalAlign=middle;whiteSpace=wrap;rounded=0;" parent="1" vertex="1">
          <mxGeometry x="640" y="140" width="60" height="30" as="geometry" />
        </mxCell>
        <mxCell id="Yc0Fu8YplYlWr9wA8VVT-68" style="edgeStyle=orthogonalEdgeStyle;rounded=0;orthogonalLoop=1;jettySize=auto;html=1;exitX=0.5;exitY=1;exitDx=0;exitDy=0;strokeWidth=2;" parent="1" source="Yc0Fu8YplYlWr9wA8VVT-22" target="Yc0Fu8YplYlWr9wA8VVT-57" edge="1">
          <mxGeometry relative="1" as="geometry" />
        </mxCell>
        <mxCell id="Yc0Fu8YplYlWr9wA8VVT-22" value="m.cancelDiscoverers()&lt;br&gt;关闭现有的服务发现" style="rounded=1;whiteSpace=wrap;html=1;fillColor=#ffcccc;strokeColor=#36393d;" parent="1" vertex="1">
          <mxGeometry x="590" y="190" width="170" height="60" as="geometry" />
        </mxCell>
        <mxCell id="Yc0Fu8YplYlWr9wA8VVT-23" value="&lt;article data-content=&quot;[{&amp;quot;type&amp;quot;:&amp;quot;block&amp;quot;,&amp;quot;id&amp;quot;:&amp;quot;oQzf-1707302012623&amp;quot;,&amp;quot;name&amp;quot;:&amp;quot;code&amp;quot;,&amp;quot;data&amp;quot;:{&amp;quot;wrap&amp;quot;:true,&amp;quot;language&amp;quot;:&amp;quot;&amp;quot;,&amp;quot;theme&amp;quot;:&amp;quot;default&amp;quot;},&amp;quot;nodes&amp;quot;:[{&amp;quot;type&amp;quot;:&amp;quot;block&amp;quot;,&amp;quot;id&amp;quot;:&amp;quot;PIXT-1708593610295&amp;quot;,&amp;quot;name&amp;quot;:&amp;quot;code-line&amp;quot;,&amp;quot;data&amp;quot;:{},&amp;quot;nodes&amp;quot;:[{&amp;quot;type&amp;quot;:&amp;quot;text&amp;quot;,&amp;quot;id&amp;quot;:&amp;quot;FoJq-1708593610294&amp;quot;,&amp;quot;leaves&amp;quot;:[{&amp;quot;text&amp;quot;:&amp;quot;type&amp;nbsp;Manager&amp;nbsp;struct&amp;nbsp;{&amp;quot;,&amp;quot;marks&amp;quot;:[]}]}]},{&amp;quot;type&amp;quot;:&amp;quot;block&amp;quot;,&amp;quot;id&amp;quot;:&amp;quot;5k57-1708593611219&amp;quot;,&amp;quot;name&amp;quot;:&amp;quot;code-line&amp;quot;,&amp;quot;data&amp;quot;:{},&amp;quot;nodes&amp;quot;:[{&amp;quot;type&amp;quot;:&amp;quot;text&amp;quot;,&amp;quot;id&amp;quot;:&amp;quot;eEuN-1708593611218&amp;quot;,&amp;quot;leaves&amp;quot;:[{&amp;quot;text&amp;quot;:&amp;quot;&amp;nbsp;&amp;nbsp;&amp;nbsp;&amp;nbsp;logger&amp;nbsp;&amp;nbsp;&amp;nbsp;&amp;nbsp;&amp;nbsp;&amp;nbsp;&amp;nbsp;&amp;nbsp;&amp;nbsp;&amp;nbsp;&amp;nbsp;log.Logger&amp;quot;,&amp;quot;marks&amp;quot;:[]}]}]},{&amp;quot;type&amp;quot;:&amp;quot;block&amp;quot;,&amp;quot;id&amp;quot;:&amp;quot;fkRS-1708593611221&amp;quot;,&amp;quot;name&amp;quot;:&amp;quot;code-line&amp;quot;,&amp;quot;data&amp;quot;:{},&amp;quot;nodes&amp;quot;:[{&amp;quot;type&amp;quot;:&amp;quot;text&amp;quot;,&amp;quot;id&amp;quot;:&amp;quot;NW3g-1708593611220&amp;quot;,&amp;quot;leaves&amp;quot;:[{&amp;quot;text&amp;quot;:&amp;quot;&amp;nbsp;&amp;nbsp;&amp;nbsp;&amp;nbsp;name&amp;nbsp;&amp;nbsp;&amp;nbsp;&amp;nbsp;&amp;nbsp;&amp;nbsp;&amp;nbsp;&amp;nbsp;&amp;nbsp;&amp;nbsp;&amp;nbsp;&amp;nbsp;&amp;nbsp;string&amp;quot;,&amp;quot;marks&amp;quot;:[]}]}]},{&amp;quot;type&amp;quot;:&amp;quot;block&amp;quot;,&amp;quot;id&amp;quot;:&amp;quot;XSko-1708593611223&amp;quot;,&amp;quot;name&amp;quot;:&amp;quot;code-line&amp;quot;,&amp;quot;data&amp;quot;:{},&amp;quot;nodes&amp;quot;:[{&amp;quot;type&amp;quot;:&amp;quot;text&amp;quot;,&amp;quot;id&amp;quot;:&amp;quot;2gKA-1708593611222&amp;quot;,&amp;quot;leaves&amp;quot;:[{&amp;quot;text&amp;quot;:&amp;quot;&amp;nbsp;&amp;nbsp;&amp;nbsp;&amp;nbsp;mtx&amp;nbsp;&amp;nbsp;&amp;nbsp;&amp;nbsp;&amp;nbsp;&amp;nbsp;&amp;nbsp;&amp;nbsp;&amp;nbsp;&amp;nbsp;&amp;nbsp;&amp;nbsp;&amp;nbsp;&amp;nbsp;sync.RWMutex&amp;quot;,&amp;quot;marks&amp;quot;:[]}]}]},{&amp;quot;type&amp;quot;:&amp;quot;block&amp;quot;,&amp;quot;id&amp;quot;:&amp;quot;2Kbo-1708593611225&amp;quot;,&amp;quot;name&amp;quot;:&amp;quot;code-line&amp;quot;,&amp;quot;data&amp;quot;:{},&amp;quot;nodes&amp;quot;:[{&amp;quot;type&amp;quot;:&amp;quot;text&amp;quot;,&amp;quot;id&amp;quot;:&amp;quot;1zew-1708593611224&amp;quot;,&amp;quot;leaves&amp;quot;:[{&amp;quot;text&amp;quot;:&amp;quot;&amp;nbsp;&amp;nbsp;&amp;nbsp;&amp;nbsp;ctx&amp;nbsp;&amp;nbsp;&amp;nbsp;&amp;nbsp;&amp;nbsp;&amp;nbsp;&amp;nbsp;&amp;nbsp;&amp;nbsp;&amp;nbsp;&amp;nbsp;&amp;nbsp;&amp;nbsp;&amp;nbsp;&amp;nbsp;context.Context&amp;quot;,&amp;quot;marks&amp;quot;:[]}]}]},{&amp;quot;type&amp;quot;:&amp;quot;block&amp;quot;,&amp;quot;id&amp;quot;:&amp;quot;vPWR-1708593611227&amp;quot;,&amp;quot;name&amp;quot;:&amp;quot;code-line&amp;quot;,&amp;quot;data&amp;quot;:{},&amp;quot;nodes&amp;quot;:[{&amp;quot;type&amp;quot;:&amp;quot;text&amp;quot;,&amp;quot;id&amp;quot;:&amp;quot;6IBR-1708593611226&amp;quot;,&amp;quot;leaves&amp;quot;:[{&amp;quot;text&amp;quot;:&amp;quot;&amp;nbsp;&amp;nbsp;&amp;nbsp;&amp;nbsp;discoverCancel&amp;nbsp;&amp;nbsp;&amp;nbsp;[]context.CancelFunc&amp;quot;,&amp;quot;marks&amp;quot;:[]}]}]},{&amp;quot;type&amp;quot;:&amp;quot;block&amp;quot;,&amp;quot;id&amp;quot;:&amp;quot;4Jts-1708593611235&amp;quot;,&amp;quot;name&amp;quot;:&amp;quot;code-line&amp;quot;,&amp;quot;data&amp;quot;:{},&amp;quot;nodes&amp;quot;:[{&amp;quot;type&amp;quot;:&amp;quot;text&amp;quot;,&amp;quot;id&amp;quot;:&amp;quot;ctO9-1708593611234&amp;quot;,&amp;quot;leaves&amp;quot;:[{&amp;quot;text&amp;quot;:&amp;quot;&amp;nbsp;&amp;nbsp;&amp;nbsp;&amp;nbsp;targets&amp;nbsp;&amp;nbsp;&amp;nbsp;&amp;nbsp;&amp;nbsp;&amp;nbsp;&amp;nbsp;&amp;nbsp;&amp;nbsp;&amp;nbsp;&amp;nbsp;map[poolKey]map[string]*targetgroup.Group&amp;quot;,&amp;quot;marks&amp;quot;:[]}]}]},{&amp;quot;type&amp;quot;:&amp;quot;block&amp;quot;,&amp;quot;id&amp;quot;:&amp;quot;OmhL-1708593611239&amp;quot;,&amp;quot;name&amp;quot;:&amp;quot;code-line&amp;quot;,&amp;quot;data&amp;quot;:{},&amp;quot;nodes&amp;quot;:[{&amp;quot;type&amp;quot;:&amp;quot;text&amp;quot;,&amp;quot;id&amp;quot;:&amp;quot;50vh-1708593611238&amp;quot;,&amp;quot;leaves&amp;quot;:[{&amp;quot;text&amp;quot;:&amp;quot;&amp;nbsp;&amp;nbsp;&amp;nbsp;&amp;nbsp;providers&amp;nbsp;&amp;nbsp;&amp;nbsp;&amp;nbsp;&amp;nbsp;&amp;nbsp;&amp;nbsp;&amp;nbsp;&amp;nbsp;[]*provider&amp;quot;,&amp;quot;marks&amp;quot;:[]}]}]},{&amp;quot;type&amp;quot;:&amp;quot;block&amp;quot;,&amp;quot;id&amp;quot;:&amp;quot;Emao-1708593611243&amp;quot;,&amp;quot;name&amp;quot;:&amp;quot;code-line&amp;quot;,&amp;quot;data&amp;quot;:{},&amp;quot;nodes&amp;quot;:[{&amp;quot;type&amp;quot;:&amp;quot;text&amp;quot;,&amp;quot;id&amp;quot;:&amp;quot;lmY2-1708593611242&amp;quot;,&amp;quot;leaves&amp;quot;:[{&amp;quot;text&amp;quot;:&amp;quot;&amp;nbsp;&amp;nbsp;&amp;nbsp;&amp;nbsp;syncCh&amp;nbsp;&amp;nbsp;&amp;nbsp;&amp;nbsp;&amp;nbsp;&amp;nbsp;&amp;nbsp;&amp;nbsp;&amp;nbsp;&amp;nbsp;&amp;nbsp;&amp;nbsp;chan&amp;nbsp;map[string][]*targetgroup.Group&amp;quot;,&amp;quot;marks&amp;quot;:[]}]}]},{&amp;quot;type&amp;quot;:&amp;quot;block&amp;quot;,&amp;quot;id&amp;quot;:&amp;quot;wFy3-1708593611252&amp;quot;,&amp;quot;name&amp;quot;:&amp;quot;code-line&amp;quot;,&amp;quot;data&amp;quot;:{},&amp;quot;nodes&amp;quot;:[{&amp;quot;type&amp;quot;:&amp;quot;text&amp;quot;,&amp;quot;id&amp;quot;:&amp;quot;SSG9-1708593611251&amp;quot;,&amp;quot;leaves&amp;quot;:[{&amp;quot;text&amp;quot;:&amp;quot;&amp;nbsp;&amp;nbsp;&amp;nbsp;&amp;nbsp;updatert&amp;nbsp;&amp;nbsp;&amp;nbsp;&amp;nbsp;&amp;nbsp;&amp;nbsp;&amp;nbsp;&amp;nbsp;&amp;nbsp;&amp;nbsp;time.Duration&amp;quot;,&amp;quot;marks&amp;quot;:[]}]}]},{&amp;quot;type&amp;quot;:&amp;quot;block&amp;quot;,&amp;quot;id&amp;quot;:&amp;quot;i7c2-1708593611258&amp;quot;,&amp;quot;name&amp;quot;:&amp;quot;code-line&amp;quot;,&amp;quot;data&amp;quot;:{},&amp;quot;nodes&amp;quot;:[{&amp;quot;type&amp;quot;:&amp;quot;text&amp;quot;,&amp;quot;id&amp;quot;:&amp;quot;tWdw-1708593611257&amp;quot;,&amp;quot;leaves&amp;quot;:[{&amp;quot;text&amp;quot;:&amp;quot;&amp;nbsp;&amp;nbsp;&amp;nbsp;&amp;nbsp;triggerSend&amp;nbsp;&amp;nbsp;&amp;nbsp;&amp;nbsp;&amp;nbsp;&amp;nbsp;&amp;nbsp;chan&amp;nbsp;struct{}&amp;quot;,&amp;quot;marks&amp;quot;:[]}]}]},{&amp;quot;type&amp;quot;:&amp;quot;block&amp;quot;,&amp;quot;id&amp;quot;:&amp;quot;S7Ca-1708593611260&amp;quot;,&amp;quot;name&amp;quot;:&amp;quot;code-line&amp;quot;,&amp;quot;data&amp;quot;:{},&amp;quot;nodes&amp;quot;:[{&amp;quot;type&amp;quot;:&amp;quot;text&amp;quot;,&amp;quot;id&amp;quot;:&amp;quot;uG7G-1708593611259&amp;quot;,&amp;quot;leaves&amp;quot;:[{&amp;quot;text&amp;quot;:&amp;quot;&amp;quot;,&amp;quot;marks&amp;quot;:[]}]}]},{&amp;quot;type&amp;quot;:&amp;quot;block&amp;quot;,&amp;quot;id&amp;quot;:&amp;quot;hZYb-1708593611264&amp;quot;,&amp;quot;name&amp;quot;:&amp;quot;code-line&amp;quot;,&amp;quot;data&amp;quot;:{},&amp;quot;nodes&amp;quot;:[{&amp;quot;type&amp;quot;:&amp;quot;text&amp;quot;,&amp;quot;id&amp;quot;:&amp;quot;HZPF-1708593611263&amp;quot;,&amp;quot;leaves&amp;quot;:[{&amp;quot;text&amp;quot;:&amp;quot;&amp;nbsp;&amp;nbsp;&amp;nbsp;&amp;nbsp;registerer&amp;nbsp;&amp;nbsp;&amp;nbsp;&amp;nbsp;&amp;nbsp;&amp;nbsp;&amp;nbsp;&amp;nbsp;prometheus.Registerer&amp;quot;,&amp;quot;marks&amp;quot;:[]}]}]},{&amp;quot;type&amp;quot;:&amp;quot;block&amp;quot;,&amp;quot;id&amp;quot;:&amp;quot;ukiE-1708593611266&amp;quot;,&amp;quot;name&amp;quot;:&amp;quot;code-line&amp;quot;,&amp;quot;data&amp;quot;:{},&amp;quot;nodes&amp;quot;:[{&amp;quot;type&amp;quot;:&amp;quot;text&amp;quot;,&amp;quot;id&amp;quot;:&amp;quot;y345-1708593611265&amp;quot;,&amp;quot;leaves&amp;quot;:[{&amp;quot;text&amp;quot;:&amp;quot;&amp;quot;,&amp;quot;marks&amp;quot;:[]}]}]},{&amp;quot;type&amp;quot;:&amp;quot;block&amp;quot;,&amp;quot;id&amp;quot;:&amp;quot;fGMF-1708593611268&amp;quot;,&amp;quot;name&amp;quot;:&amp;quot;code-line&amp;quot;,&amp;quot;data&amp;quot;:{},&amp;quot;nodes&amp;quot;:[{&amp;quot;type&amp;quot;:&amp;quot;text&amp;quot;,&amp;quot;id&amp;quot;:&amp;quot;GRQg-1708593611267&amp;quot;,&amp;quot;leaves&amp;quot;:[{&amp;quot;text&amp;quot;:&amp;quot;&amp;nbsp;&amp;nbsp;&amp;nbsp;&amp;nbsp;metrics&amp;nbsp;&amp;nbsp;&amp;nbsp;&amp;nbsp;&amp;nbsp;&amp;nbsp;&amp;nbsp;&amp;nbsp;&amp;nbsp;&amp;nbsp;&amp;nbsp;*discovery.Metrics&amp;quot;,&amp;quot;marks&amp;quot;:[]}]}]},{&amp;quot;type&amp;quot;:&amp;quot;block&amp;quot;,&amp;quot;id&amp;quot;:&amp;quot;Dtk6-1708593611270&amp;quot;,&amp;quot;name&amp;quot;:&amp;quot;code-line&amp;quot;,&amp;quot;data&amp;quot;:{},&amp;quot;nodes&amp;quot;:[{&amp;quot;type&amp;quot;:&amp;quot;text&amp;quot;,&amp;quot;id&amp;quot;:&amp;quot;m6uQ-1708593611269&amp;quot;,&amp;quot;leaves&amp;quot;:[{&amp;quot;text&amp;quot;:&amp;quot;&amp;nbsp;&amp;nbsp;&amp;nbsp;&amp;nbsp;sdMetrics&amp;nbsp;&amp;nbsp;&amp;nbsp;&amp;nbsp;&amp;nbsp;&amp;nbsp;&amp;nbsp;&amp;nbsp;&amp;nbsp;map[string]discovery.DiscovererMetrics&amp;quot;,&amp;quot;marks&amp;quot;:[]}]}]},{&amp;quot;type&amp;quot;:&amp;quot;block&amp;quot;,&amp;quot;id&amp;quot;:&amp;quot;KOP7-1708593611272&amp;quot;,&amp;quot;name&amp;quot;:&amp;quot;code-line&amp;quot;,&amp;quot;data&amp;quot;:{},&amp;quot;nodes&amp;quot;:[{&amp;quot;type&amp;quot;:&amp;quot;text&amp;quot;,&amp;quot;id&amp;quot;:&amp;quot;qXI7-1708593611271&amp;quot;,&amp;quot;leaves&amp;quot;:[{&amp;quot;text&amp;quot;:&amp;quot;}&amp;quot;,&amp;quot;marks&amp;quot;:[]}]}]}],&amp;quot;state&amp;quot;:{}}]&quot;&gt;&lt;div data-language=&quot;&quot; style=&quot;&quot; data-theme=&quot;default&quot;&gt;&lt;br&gt;&lt;/div&gt;&lt;/article&gt;" style="rounded=0;whiteSpace=wrap;html=1;fillColor=#f9f7ed;strokeColor=#36393d;align=left;" parent="1" vertex="1">
          <mxGeometry x="1190" y="120" width="410" height="405" as="geometry" />
        </mxCell>
        <mxCell id="jpZLS2aRkfOWzve02EP6-36" style="edgeStyle=orthogonalEdgeStyle;rounded=0;orthogonalLoop=1;jettySize=auto;html=1;exitX=1;exitY=0.5;exitDx=0;exitDy=0;entryX=0;entryY=0.5;entryDx=0;entryDy=0;fillColor=#f0a30a;strokeColor=#BD7000;strokeWidth=3;" parent="1" source="Yc0Fu8YplYlWr9wA8VVT-41" target="jpZLS2aRkfOWzve02EP6-35" edge="1">
          <mxGeometry relative="1" as="geometry">
            <Array as="points">
              <mxPoint x="1650" y="410" />
              <mxPoint x="1650" y="530" />
            </Array>
          </mxGeometry>
        </mxCell>
        <mxCell id="Yc0Fu8YplYlWr9wA8VVT-41" value="&lt;div style=&quot;border-color: var(--border-color);&quot; data-language=&quot;&quot; data-theme=&quot;default&quot;&gt;triggerSend&amp;nbsp; &amp;nbsp; &amp;nbsp; &amp;nbsp; &amp;nbsp; &amp;nbsp; &amp;nbsp; &amp;nbsp; chan struct{}&lt;br style=&quot;border-color: var(--border-color);&quot;&gt;&lt;/div&gt;" style="text;strokeColor=none;fillColor=#B3B3B3;align=left;verticalAlign=middle;spacingLeft=4;spacingRight=4;overflow=hidden;points=[[0,0.5],[1,0.5]];portConstraint=eastwest;rotatable=0;whiteSpace=wrap;html=1;" parent="1" vertex="1">
          <mxGeometry x="1200" y="390" width="390" height="40" as="geometry" />
        </mxCell>
        <mxCell id="Yc0Fu8YplYlWr9wA8VVT-55" style="edgeStyle=orthogonalEdgeStyle;rounded=0;orthogonalLoop=1;jettySize=auto;html=1;exitX=1;exitY=0.5;exitDx=0;exitDy=0;entryX=0;entryY=0.5;entryDx=0;entryDy=0;fillColor=#ffcccc;strokeColor=#00FF00;strokeWidth=2;" parent="1" source="Yc0Fu8YplYlWr9wA8VVT-22" target="Yc0Fu8YplYlWr9wA8VVT-52" edge="1">
          <mxGeometry relative="1" as="geometry" />
        </mxCell>
        <mxCell id="Yc0Fu8YplYlWr9wA8VVT-44" value="&lt;div style=&quot;border-color: var(--border-color);&quot; data-language=&quot;&quot; data-theme=&quot;default&quot;&gt;。。。。。。&lt;/div&gt;" style="text;strokeColor=none;fillColor=#E6E6E6;align=left;verticalAlign=middle;spacingLeft=4;spacingRight=4;overflow=hidden;points=[[0,0.5],[1,0.5]];portConstraint=eastwest;rotatable=0;whiteSpace=wrap;html=1;perimeterSpacing=1;gradientColor=none;" parent="1" vertex="1">
          <mxGeometry x="1200" y="430" width="390" height="40" as="geometry" />
        </mxCell>
        <mxCell id="jpZLS2aRkfOWzve02EP6-53" style="edgeStyle=orthogonalEdgeStyle;rounded=0;orthogonalLoop=1;jettySize=auto;html=1;exitX=0;exitY=0.5;exitDx=0;exitDy=0;strokeColor=#FF0080;strokeWidth=4;entryX=0.5;entryY=0;entryDx=0;entryDy=0;" parent="1" source="Yc0Fu8YplYlWr9wA8VVT-47" target="jpZLS2aRkfOWzve02EP6-54" edge="1">
          <mxGeometry relative="1" as="geometry">
            <mxPoint x="920" y="1301" as="targetPoint" />
          </mxGeometry>
        </mxCell>
        <mxCell id="Yc0Fu8YplYlWr9wA8VVT-47" value="&lt;div style=&quot;border-color: var(--border-color);&quot; data-language=&quot;&quot; data-theme=&quot;default&quot;&gt;syncCh&amp;nbsp; &amp;nbsp; &amp;nbsp; &amp;nbsp; &amp;nbsp; &amp;nbsp; &amp;nbsp; &amp;nbsp; &amp;nbsp; &amp;nbsp; &amp;nbsp; &amp;nbsp;chan map[string][]*targetgroup.Group&lt;br style=&quot;border-color: var(--border-color);&quot;&gt;&lt;/div&gt;" style="text;strokeColor=none;fillColor=#B3B3B3;align=left;verticalAlign=middle;spacingLeft=4;spacingRight=4;overflow=hidden;points=[[0,0.5],[1,0.5]];portConstraint=eastwest;rotatable=0;whiteSpace=wrap;html=1;" parent="1" vertex="1">
          <mxGeometry x="1200" y="310" width="390" height="40" as="geometry" />
        </mxCell>
        <mxCell id="Yc0Fu8YplYlWr9wA8VVT-48" value="&lt;div style=&quot;border-color: var(--border-color);&quot; data-language=&quot;&quot; data-theme=&quot;default&quot;&gt;updatert&amp;nbsp; &amp;nbsp; &amp;nbsp; &amp;nbsp; &amp;nbsp; &amp;nbsp; &amp;nbsp; &amp;nbsp; &amp;nbsp; &amp;nbsp; &amp;nbsp; time.Duration&lt;br&gt;&lt;/div&gt;" style="text;strokeColor=none;fillColor=#E6E6E6;align=left;verticalAlign=middle;spacingLeft=4;spacingRight=4;overflow=hidden;points=[[0,0.5],[1,0.5]];portConstraint=eastwest;rotatable=0;whiteSpace=wrap;html=1;perimeterSpacing=1;gradientColor=none;" parent="1" vertex="1">
          <mxGeometry x="1200" y="350" width="390" height="40" as="geometry" />
        </mxCell>
        <mxCell id="Yc0Fu8YplYlWr9wA8VVT-49" value="&lt;div style=&quot;border-color: var(--border-color);&quot; data-language=&quot;&quot; data-theme=&quot;default&quot;&gt;targets&amp;nbsp; &amp;nbsp; &amp;nbsp; &amp;nbsp; &amp;nbsp; &amp;nbsp; &amp;nbsp; &amp;nbsp; &amp;nbsp; &amp;nbsp; &amp;nbsp; &amp;nbsp; &amp;nbsp;map[poolKey]map[string]*targetgroup.Group&lt;br style=&quot;border-color: var(--border-color);&quot;&gt;&lt;/div&gt;" style="text;strokeColor=none;fillColor=#B3B3B3;align=left;verticalAlign=middle;spacingLeft=4;spacingRight=4;overflow=hidden;points=[[0,0.5],[1,0.5]];portConstraint=eastwest;rotatable=0;whiteSpace=wrap;html=1;" parent="1" vertex="1">
          <mxGeometry x="1200" y="240" width="390" height="40" as="geometry" />
        </mxCell>
        <mxCell id="Yc0Fu8YplYlWr9wA8VVT-72" style="edgeStyle=orthogonalEdgeStyle;rounded=0;orthogonalLoop=1;jettySize=auto;html=1;exitX=1;exitY=0.5;exitDx=0;exitDy=0;entryX=1;entryY=0.5;entryDx=0;entryDy=0;strokeColor=#82b366;strokeWidth=3;fillColor=#d5e8d4;" parent="1" source="Yc0Fu8YplYlWr9wA8VVT-50" target="Yc0Fu8YplYlWr9wA8VVT-70" edge="1">
          <mxGeometry relative="1" as="geometry">
            <Array as="points">
              <mxPoint x="1690" y="300" />
              <mxPoint x="1690" y="740" />
              <mxPoint x="850" y="740" />
              <mxPoint x="850" y="530" />
            </Array>
          </mxGeometry>
        </mxCell>
        <mxCell id="Yc0Fu8YplYlWr9wA8VVT-50" value="&lt;div style=&quot;border-color: var(--border-color);&quot; data-language=&quot;&quot; data-theme=&quot;default&quot;&gt;providers&amp;nbsp; &amp;nbsp; &amp;nbsp; &amp;nbsp; &amp;nbsp; &amp;nbsp; &amp;nbsp; &amp;nbsp; &amp;nbsp; &amp;nbsp; []*provider&lt;br&gt;&lt;/div&gt;" style="text;strokeColor=none;fillColor=#E6E6E6;align=left;verticalAlign=middle;spacingLeft=4;spacingRight=4;overflow=hidden;points=[[0,0.5],[1,0.5]];portConstraint=eastwest;rotatable=0;whiteSpace=wrap;html=1;perimeterSpacing=1;gradientColor=none;" parent="1" vertex="1">
          <mxGeometry x="1200" y="280" width="390" height="40" as="geometry" />
        </mxCell>
        <mxCell id="Yc0Fu8YplYlWr9wA8VVT-51" value="&lt;div style=&quot;border-color: var(--border-color);&quot; data-language=&quot;&quot; data-theme=&quot;default&quot;&gt;ctx&amp;nbsp; &amp;nbsp; &amp;nbsp; &amp;nbsp; &amp;nbsp; &amp;nbsp; &amp;nbsp; &amp;nbsp; &amp;nbsp; &amp;nbsp; &amp;nbsp; &amp;nbsp; &amp;nbsp; &amp;nbsp; &amp;nbsp; &amp;nbsp;context.Context&lt;br style=&quot;border-color: var(--border-color);&quot;&gt;&lt;/div&gt;" style="text;strokeColor=none;fillColor=#B3B3B3;align=left;verticalAlign=middle;spacingLeft=4;spacingRight=4;overflow=hidden;points=[[0,0.5],[1,0.5]];portConstraint=eastwest;rotatable=0;whiteSpace=wrap;html=1;" parent="1" vertex="1">
          <mxGeometry x="1200" y="160" width="390" height="40" as="geometry" />
        </mxCell>
        <mxCell id="Yc0Fu8YplYlWr9wA8VVT-52" value="&lt;div style=&quot;border-color: var(--border-color);&quot; data-language=&quot;&quot; data-theme=&quot;default&quot;&gt;discoverCancel&amp;nbsp; &amp;nbsp; &amp;nbsp; &amp;nbsp; &amp;nbsp; &amp;nbsp; []context.CancelFunc&lt;br&gt;&lt;/div&gt;" style="text;strokeColor=none;fillColor=#E6E6E6;align=left;verticalAlign=middle;spacingLeft=4;spacingRight=4;overflow=hidden;points=[[0,0.5],[1,0.5]];portConstraint=eastwest;rotatable=0;whiteSpace=wrap;html=1;perimeterSpacing=1;gradientColor=none;" parent="1" vertex="1">
          <mxGeometry x="1200" y="200" width="390" height="40" as="geometry" />
        </mxCell>
        <mxCell id="Yc0Fu8YplYlWr9wA8VVT-53" value="&lt;b&gt;discovery/legacymanager.&lt;span style=&quot;background-color: initial;&quot;&gt;Manager&lt;/span&gt;&lt;/b&gt;" style="text;html=1;align=center;verticalAlign=middle;whiteSpace=wrap;rounded=0;" parent="1" vertex="1">
          <mxGeometry x="1360" y="120" width="60" height="30" as="geometry" />
        </mxCell>
        <mxCell id="Yc0Fu8YplYlWr9wA8VVT-56" value="&lt;div style=&quot;font-size: 14px;&quot;&gt;&lt;font style=&quot;font-size: 14px;&quot;&gt;&lt;span style=&quot;background-color: initial;&quot;&gt;遍历discoverCancel ，&lt;/span&gt;&lt;span style=&quot;background-color: initial;&quot;&gt;取消所有服务发现&lt;/span&gt;&lt;/font&gt;&lt;/div&gt;&lt;font style=&quot;font-size: 14px;&quot;&gt;1. 初始状态，切片discoverCancel为空&lt;br&gt;2. reload时，切片discoverCancel不为空，执行取消函数&lt;/font&gt;" style="text;html=1;align=left;verticalAlign=middle;whiteSpace=wrap;rounded=0;" parent="1" vertex="1">
          <mxGeometry x="840" y="180" width="360" height="30" as="geometry" />
        </mxCell>
        <mxCell id="Yc0Fu8YplYlWr9wA8VVT-60" style="edgeStyle=orthogonalEdgeStyle;rounded=0;orthogonalLoop=1;jettySize=auto;html=1;exitX=1;exitY=0.5;exitDx=0;exitDy=0;entryX=0;entryY=0.5;entryDx=0;entryDy=0;strokeColor=#6c8ebf;strokeWidth=2;fillColor=#dae8fc;" parent="1" source="Yc0Fu8YplYlWr9wA8VVT-57" target="Yc0Fu8YplYlWr9wA8VVT-49" edge="1">
          <mxGeometry relative="1" as="geometry">
            <Array as="points">
              <mxPoint x="910" y="323" />
              <mxPoint x="910" y="260" />
            </Array>
          </mxGeometry>
        </mxCell>
        <mxCell id="Yc0Fu8YplYlWr9wA8VVT-61" style="edgeStyle=orthogonalEdgeStyle;rounded=0;orthogonalLoop=1;jettySize=auto;html=1;exitX=1;exitY=0.5;exitDx=0;exitDy=0;entryX=0;entryY=0.5;entryDx=0;entryDy=0;strokeColor=#6c8ebf;strokeWidth=3;fillColor=#dae8fc;" parent="1" source="Yc0Fu8YplYlWr9wA8VVT-57" target="Yc0Fu8YplYlWr9wA8VVT-50" edge="1">
          <mxGeometry relative="1" as="geometry">
            <Array as="points">
              <mxPoint x="910" y="323" />
              <mxPoint x="910" y="300" />
            </Array>
          </mxGeometry>
        </mxCell>
        <mxCell id="Yc0Fu8YplYlWr9wA8VVT-69" style="edgeStyle=orthogonalEdgeStyle;rounded=0;orthogonalLoop=1;jettySize=auto;html=1;exitX=0.5;exitY=1;exitDx=0;exitDy=0;entryX=0.5;entryY=0;entryDx=0;entryDy=0;strokeWidth=2;" parent="1" source="Yc0Fu8YplYlWr9wA8VVT-57" target="Yc0Fu8YplYlWr9wA8VVT-62" edge="1">
          <mxGeometry relative="1" as="geometry" />
        </mxCell>
        <mxCell id="Yc0Fu8YplYlWr9wA8VVT-57" value="清空targets 、providers、discoverCancel" style="rounded=1;whiteSpace=wrap;html=1;fillColor=#ffcccc;strokeColor=#36393d;" parent="1" vertex="1">
          <mxGeometry x="590" y="292.5" width="170" height="60" as="geometry" />
        </mxCell>
        <mxCell id="Yc0Fu8YplYlWr9wA8VVT-59" style="edgeStyle=orthogonalEdgeStyle;rounded=0;orthogonalLoop=1;jettySize=auto;html=1;exitX=1;exitY=0.5;exitDx=0;exitDy=0;entryX=0.005;entryY=0.786;entryDx=0;entryDy=0;entryPerimeter=0;fillColor=#dae8fc;strokeColor=#6c8ebf;strokeWidth=3;" parent="1" source="Yc0Fu8YplYlWr9wA8VVT-57" target="Yc0Fu8YplYlWr9wA8VVT-52" edge="1">
          <mxGeometry relative="1" as="geometry">
            <Array as="points">
              <mxPoint x="910" y="323" />
              <mxPoint x="910" y="232" />
            </Array>
          </mxGeometry>
        </mxCell>
        <mxCell id="Yc0Fu8YplYlWr9wA8VVT-71" style="edgeStyle=orthogonalEdgeStyle;rounded=0;orthogonalLoop=1;jettySize=auto;html=1;exitX=0.5;exitY=1;exitDx=0;exitDy=0;strokeWidth=2;" parent="1" source="Yc0Fu8YplYlWr9wA8VVT-62" target="Yc0Fu8YplYlWr9wA8VVT-70" edge="1">
          <mxGeometry relative="1" as="geometry" />
        </mxCell>
        <mxCell id="jpZLS2aRkfOWzve02EP6-3" style="edgeStyle=orthogonalEdgeStyle;rounded=0;orthogonalLoop=1;jettySize=auto;html=1;exitX=1;exitY=0.5;exitDx=0;exitDy=0;entryX=-0.008;entryY=0.167;entryDx=0;entryDy=0;strokeWidth=3;fillColor=#f8cecc;strokeColor=#3333FF;entryPerimeter=0;" parent="1" source="Yc0Fu8YplYlWr9wA8VVT-62" target="jpZLS2aRkfOWzve02EP6-4" edge="1">
          <mxGeometry relative="1" as="geometry">
            <mxPoint x="1090" y="850" as="targetPoint" />
            <Array as="points">
              <mxPoint x="890" y="420" />
              <mxPoint x="890" y="440" />
              <mxPoint x="1060" y="440" />
              <mxPoint x="1060" y="1040" />
              <mxPoint x="1140" y="1040" />
              <mxPoint x="1140" y="1035" />
            </Array>
          </mxGeometry>
        </mxCell>
        <mxCell id="Yc0Fu8YplYlWr9wA8VVT-62" value="注册Providers&lt;br&gt;&amp;nbsp;m.registerProviders" style="rounded=1;whiteSpace=wrap;html=1;fillColor=#ffcccc;strokeColor=#36393d;" parent="1" vertex="1">
          <mxGeometry x="590" y="390" width="170" height="60" as="geometry" />
        </mxCell>
        <mxCell id="Yc0Fu8YplYlWr9wA8VVT-66" value="&lt;font style=&quot;font-size: 14px;&quot;&gt;清空targets 、providers、discoverCancel&lt;/font&gt;&lt;div style=&quot;&quot;&gt;&lt;/div&gt;" style="text;html=1;align=left;verticalAlign=middle;whiteSpace=wrap;rounded=0;" parent="1" vertex="1">
          <mxGeometry x="830" y="270" width="360" height="30" as="geometry" />
        </mxCell>
        <mxCell id="Yc0Fu8YplYlWr9wA8VVT-67" value="&lt;span style=&quot;font-size: 14px; background-color: initial;&quot;&gt;创建provider，追加到&lt;/span&gt;providers字段&lt;br&gt;&lt;div style=&quot;&quot;&gt;&lt;/div&gt;" style="text;html=1;align=left;verticalAlign=middle;whiteSpace=wrap;rounded=0;" parent="1" vertex="1">
          <mxGeometry x="1470" y="1005" width="235" height="30" as="geometry" />
        </mxCell>
        <mxCell id="jpZLS2aRkfOWzve02EP6-1" style="edgeStyle=orthogonalEdgeStyle;rounded=0;orthogonalLoop=1;jettySize=auto;html=1;exitX=0.5;exitY=1;exitDx=0;exitDy=0;entryX=0.5;entryY=0;entryDx=0;entryDy=0;strokeWidth=2;" parent="1" source="Yc0Fu8YplYlWr9wA8VVT-70" target="Yc0Fu8YplYlWr9wA8VVT-93" edge="1">
          <mxGeometry relative="1" as="geometry" />
        </mxCell>
        <mxCell id="Yc0Fu8YplYlWr9wA8VVT-70" value="遍历m.providers&lt;br&gt;启动startProvider" style="rounded=1;whiteSpace=wrap;html=1;fillColor=#ffcccc;strokeColor=#36393d;" parent="1" vertex="1">
          <mxGeometry x="590" y="500" width="170" height="60" as="geometry" />
        </mxCell>
        <mxCell id="Yc0Fu8YplYlWr9wA8VVT-73" value="&lt;span style=&quot;background-color: initial; font-size: 14px;&quot;&gt;&amp;nbsp;遍历m.providers，&lt;/span&gt;&lt;span style=&quot;background-color: initial; text-align: center; font-size: 14px;&quot;&gt;启动startProvider&lt;/span&gt;&lt;br style=&quot;font-size: 14px;&quot;&gt;&lt;div style=&quot;font-size: 14px;&quot;&gt;&lt;/div&gt;" style="text;html=1;align=left;verticalAlign=middle;whiteSpace=wrap;rounded=0;fontSize=14;" parent="1" vertex="1">
          <mxGeometry x="1155" y="710" width="310" height="30" as="geometry" />
        </mxCell>
        <mxCell id="Yc0Fu8YplYlWr9wA8VVT-74" value="&lt;font color=&quot;#e6e6e6&quot;&gt;TYLTR&lt;/font&gt;" style="text;html=1;align=center;verticalAlign=middle;whiteSpace=wrap;rounded=0;" parent="1" vertex="1">
          <mxGeometry x="1090" y="370" width="60" height="30" as="geometry" />
        </mxCell>
        <mxCell id="Yc0Fu8YplYlWr9wA8VVT-76" value="&lt;font color=&quot;#e6e6e6&quot;&gt;TYLTR&lt;/font&gt;" style="text;html=1;align=center;verticalAlign=middle;whiteSpace=wrap;rounded=0;" parent="1" vertex="1">
          <mxGeometry x="880" y="140" width="60" height="30" as="geometry" />
        </mxCell>
        <mxCell id="Yc0Fu8YplYlWr9wA8VVT-77" value="&lt;font color=&quot;#e6e6e6&quot;&gt;TYLTR&lt;/font&gt;" style="text;html=1;align=center;verticalAlign=middle;whiteSpace=wrap;rounded=0;" parent="1" vertex="1">
          <mxGeometry x="850" y="340" width="60" height="30" as="geometry" />
        </mxCell>
        <mxCell id="Yc0Fu8YplYlWr9wA8VVT-78" value="&lt;font color=&quot;#e6e6e6&quot;&gt;TYLTR&lt;/font&gt;" style="text;html=1;align=center;verticalAlign=middle;whiteSpace=wrap;rounded=0;" parent="1" vertex="1">
          <mxGeometry x="130" y="450" width="60" height="30" as="geometry" />
        </mxCell>
        <mxCell id="Yc0Fu8YplYlWr9wA8VVT-79" value="&lt;font color=&quot;#e6e6e6&quot;&gt;TYLTR&lt;/font&gt;" style="text;html=1;align=center;verticalAlign=middle;whiteSpace=wrap;rounded=0;" parent="1" vertex="1">
          <mxGeometry x="1490" y="650" width="60" height="30" as="geometry" />
        </mxCell>
        <mxCell id="Yc0Fu8YplYlWr9wA8VVT-81" value="&lt;font color=&quot;#e6e6e6&quot;&gt;TYLTR&lt;/font&gt;" style="text;html=1;align=center;verticalAlign=middle;whiteSpace=wrap;rounded=0;" parent="1" vertex="1">
          <mxGeometry x="1320" y="555" width="60" height="30" as="geometry" />
        </mxCell>
        <mxCell id="Yc0Fu8YplYlWr9wA8VVT-82" value="&lt;font color=&quot;#e6e6e6&quot;&gt;TYLTR&lt;/font&gt;" style="text;html=1;align=center;verticalAlign=middle;whiteSpace=wrap;rounded=0;" parent="1" vertex="1">
          <mxGeometry x="710" y="680" width="60" height="30" as="geometry" />
        </mxCell>
        <mxCell id="Yc0Fu8YplYlWr9wA8VVT-84" value="&lt;font color=&quot;#e6e6e6&quot;&gt;TYLTR&lt;/font&gt;" style="text;html=1;align=center;verticalAlign=middle;whiteSpace=wrap;rounded=0;" parent="1" vertex="1">
          <mxGeometry x="380" y="460" width="60" height="30" as="geometry" />
        </mxCell>
        <mxCell id="Yc0Fu8YplYlWr9wA8VVT-85" value="&lt;font color=&quot;#e6e6e6&quot;&gt;TYLTR&lt;/font&gt;" style="text;html=1;align=center;verticalAlign=middle;whiteSpace=wrap;rounded=0;" parent="1" vertex="1">
          <mxGeometry x="380" y="630" width="60" height="30" as="geometry" />
        </mxCell>
        <mxCell id="Yc0Fu8YplYlWr9wA8VVT-86" value="&lt;font color=&quot;#e6e6e6&quot;&gt;TYLTR&lt;/font&gt;" style="text;html=1;align=center;verticalAlign=middle;whiteSpace=wrap;rounded=0;" parent="1" vertex="1">
          <mxGeometry x="370" y="70" width="60" height="30" as="geometry" />
        </mxCell>
        <mxCell id="Yc0Fu8YplYlWr9wA8VVT-87" value="go p.d.Run(ctx, updates)" style="rounded=1;whiteSpace=wrap;html=1;fillColor=#dae8fc;strokeColor=#6c8ebf;" parent="1" vertex="1">
          <mxGeometry x="460" y="800" width="160" height="60" as="geometry" />
        </mxCell>
        <mxCell id="jpZLS2aRkfOWzve02EP6-19" style="edgeStyle=orthogonalEdgeStyle;rounded=0;orthogonalLoop=1;jettySize=auto;html=1;exitX=1;exitY=0.5;exitDx=0;exitDy=0;entryX=1;entryY=0.5;entryDx=0;entryDy=0;fillColor=#a20025;strokeColor=#6F0000;strokeWidth=3;" parent="1" source="Yc0Fu8YplYlWr9wA8VVT-90" target="Yc0Fu8YplYlWr9wA8VVT-49" edge="1">
          <mxGeometry relative="1" as="geometry">
            <mxPoint x="1110" y="610" as="targetPoint" />
            <Array as="points">
              <mxPoint x="1880" y="830" />
              <mxPoint x="1880" y="260" />
            </Array>
          </mxGeometry>
        </mxCell>
        <mxCell id="jpZLS2aRkfOWzve02EP6-21" style="edgeStyle=orthogonalEdgeStyle;rounded=0;orthogonalLoop=1;jettySize=auto;html=1;exitX=1;exitY=0.5;exitDx=0;exitDy=0;entryX=0;entryY=0.5;entryDx=0;entryDy=0;strokeColor=#6F0000;strokeWidth=3;" parent="1" source="Yc0Fu8YplYlWr9wA8VVT-90" target="Yc0Fu8YplYlWr9wA8VVT-41" edge="1">
          <mxGeometry relative="1" as="geometry">
            <Array as="points">
              <mxPoint x="1000" y="830" />
              <mxPoint x="1000" y="410" />
            </Array>
          </mxGeometry>
        </mxCell>
        <mxCell id="Yc0Fu8YplYlWr9wA8VVT-90" value="go m.updater(ctx, p, updates)" style="rounded=1;whiteSpace=wrap;html=1;fillColor=#d5e8d4;strokeColor=#82b366;" parent="1" vertex="1">
          <mxGeometry x="720" y="800" width="170" height="60" as="geometry" />
        </mxCell>
        <mxCell id="Yc0Fu8YplYlWr9wA8VVT-94" style="edgeStyle=orthogonalEdgeStyle;rounded=0;orthogonalLoop=1;jettySize=auto;html=1;exitX=1;exitY=0.5;exitDx=0;exitDy=0;entryX=1;entryY=0.5;entryDx=0;entryDy=0;strokeColor=#FF0080;strokeWidth=3;" parent="1" source="Yc0Fu8YplYlWr9wA8VVT-93" target="Yc0Fu8YplYlWr9wA8VVT-52" edge="1">
          <mxGeometry relative="1" as="geometry">
            <Array as="points">
              <mxPoint x="1790" y="640" />
              <mxPoint x="1790" y="220" />
            </Array>
          </mxGeometry>
        </mxCell>
        <mxCell id="Yc0Fu8YplYlWr9wA8VVT-95" style="edgeStyle=orthogonalEdgeStyle;rounded=0;orthogonalLoop=1;jettySize=auto;html=1;exitX=0.5;exitY=1;exitDx=0;exitDy=0;entryX=0.5;entryY=0;entryDx=0;entryDy=0;strokeColor=#000000;strokeWidth=2;" parent="1" source="Yc0Fu8YplYlWr9wA8VVT-93" target="Yc0Fu8YplYlWr9wA8VVT-87" edge="1">
          <mxGeometry relative="1" as="geometry" />
        </mxCell>
        <mxCell id="Yc0Fu8YplYlWr9wA8VVT-96" style="edgeStyle=orthogonalEdgeStyle;rounded=0;orthogonalLoop=1;jettySize=auto;html=1;exitX=0.5;exitY=1;exitDx=0;exitDy=0;entryX=0.5;entryY=0;entryDx=0;entryDy=0;strokeColor=#000000;strokeWidth=2;" parent="1" source="Yc0Fu8YplYlWr9wA8VVT-93" target="Yc0Fu8YplYlWr9wA8VVT-90" edge="1">
          <mxGeometry relative="1" as="geometry" />
        </mxCell>
        <mxCell id="Yc0Fu8YplYlWr9wA8VVT-93" value="startProvider&lt;br&gt;1. 向discoverCancel添加注销函数&lt;br&gt;2. 启动Run、updater两个协程" style="rounded=1;whiteSpace=wrap;html=1;fillColor=#ffcccc;strokeColor=#36393d;" parent="1" vertex="1">
          <mxGeometry x="580" y="610" width="190" height="60" as="geometry" />
        </mxCell>
        <mxCell id="jpZLS2aRkfOWzve02EP6-10" style="edgeStyle=orthogonalEdgeStyle;rounded=0;orthogonalLoop=1;jettySize=auto;html=1;exitX=1;exitY=0.25;exitDx=0;exitDy=0;entryX=0.995;entryY=0.286;entryDx=0;entryDy=0;entryPerimeter=0;strokeColor=#3333FF;strokeWidth=3;" parent="1" source="jpZLS2aRkfOWzve02EP6-4" target="Yc0Fu8YplYlWr9wA8VVT-50" edge="1">
          <mxGeometry relative="1" as="geometry">
            <mxPoint x="1710" y="640" as="targetPoint" />
            <Array as="points">
              <mxPoint x="1740" y="1055" />
              <mxPoint x="1740" y="291" />
            </Array>
          </mxGeometry>
        </mxCell>
        <mxCell id="jpZLS2aRkfOWzve02EP6-4" value="" style="rounded=0;whiteSpace=wrap;html=1;fillColor=#fff2cc;strokeColor=#d6b656;" parent="1" vertex="1">
          <mxGeometry x="1155" y="995" width="250" height="240" as="geometry" />
        </mxCell>
        <mxCell id="jpZLS2aRkfOWzve02EP6-5" value="provider" style="text;html=1;align=center;verticalAlign=middle;whiteSpace=wrap;rounded=0;" parent="1" vertex="1">
          <mxGeometry x="1246" y="1005" width="60" height="30" as="geometry" />
        </mxCell>
        <mxCell id="jpZLS2aRkfOWzve02EP6-6" value="name&amp;nbsp; &amp;nbsp; &amp;nbsp; &amp;nbsp; &amp;nbsp; &amp;nbsp; &amp;nbsp; &amp;nbsp; &amp;nbsp; string &amp;nbsp;&lt;span style=&quot;&quot;&gt;&lt;span style=&quot;white-space: pre;&quot;&gt;&amp;nbsp;&amp;nbsp;&amp;nbsp;&amp;nbsp;&lt;/span&gt;&lt;/span&gt;&lt;span style=&quot;&quot;&gt;&lt;span style=&quot;white-space: pre;&quot;&gt;&amp;nbsp;&amp;nbsp;&amp;nbsp;&amp;nbsp;&lt;/span&gt;&lt;/span&gt;" style="rounded=0;whiteSpace=wrap;html=1;align=left;" parent="1" vertex="1">
          <mxGeometry x="1165" y="1035" width="210" height="40" as="geometry" />
        </mxCell>
        <mxCell id="jpZLS2aRkfOWzve02EP6-7" value="d&amp;nbsp; &amp;nbsp; &amp;nbsp; &amp;nbsp; &amp;nbsp; &amp;nbsp; &amp;nbsp; &amp;nbsp; &amp;nbsp; &amp;nbsp; &amp;nbsp; &amp;nbsp;discovery.Discoverer" style="rounded=0;whiteSpace=wrap;html=1;align=left;fillColor=#f8cecc;strokeColor=#b85450;" parent="1" vertex="1">
          <mxGeometry x="1165" y="1075" width="210" height="40" as="geometry" />
        </mxCell>
        <mxCell id="jpZLS2aRkfOWzve02EP6-8" value="subs&amp;nbsp; &amp;nbsp; &amp;nbsp; &amp;nbsp; &amp;nbsp; &amp;nbsp; &amp;nbsp; &amp;nbsp; &amp;nbsp; []string&amp;nbsp;" style="rounded=0;whiteSpace=wrap;html=1;align=left;" parent="1" vertex="1">
          <mxGeometry x="1165" y="1115" width="210" height="40" as="geometry" />
        </mxCell>
        <mxCell id="jpZLS2aRkfOWzve02EP6-9" value="config&amp;nbsp; &amp;nbsp; &amp;nbsp; &amp;nbsp; &amp;nbsp; &amp;nbsp; &amp;nbsp; &amp;nbsp; &amp;nbsp;interface{}" style="rounded=0;whiteSpace=wrap;html=1;align=left;" parent="1" vertex="1">
          <mxGeometry x="1165" y="1155" width="210" height="40" as="geometry" />
        </mxCell>
        <mxCell id="jpZLS2aRkfOWzve02EP6-11" value="&lt;br&gt;&lt;div style=&quot;&quot;&gt;&lt;/div&gt;" style="text;html=1;align=left;verticalAlign=middle;whiteSpace=wrap;rounded=0;" parent="1" vertex="1">
          <mxGeometry x="1420" y="910" width="235" height="30" as="geometry" />
        </mxCell>
        <mxCell id="jpZLS2aRkfOWzve02EP6-14" style="edgeStyle=orthogonalEdgeStyle;rounded=0;orthogonalLoop=1;jettySize=auto;html=1;exitX=0.5;exitY=0;exitDx=0;exitDy=0;exitPerimeter=0;entryX=0.5;entryY=1;entryDx=0;entryDy=0;strokeWidth=2;fillColor=#e1d5e7;strokeColor=#FF00FF;" parent="1" source="jpZLS2aRkfOWzve02EP6-12" target="Yc0Fu8YplYlWr9wA8VVT-90" edge="1">
          <mxGeometry relative="1" as="geometry" />
        </mxCell>
        <mxCell id="jpZLS2aRkfOWzve02EP6-12" value="chan&amp;nbsp; updates" style="shape=cylinder3;whiteSpace=wrap;html=1;boundedLbl=1;backgroundOutline=1;size=15;direction=south;" parent="1" vertex="1">
          <mxGeometry x="620" y="930" width="140" height="30" as="geometry" />
        </mxCell>
        <mxCell id="jpZLS2aRkfOWzve02EP6-13" style="edgeStyle=orthogonalEdgeStyle;rounded=0;orthogonalLoop=1;jettySize=auto;html=1;exitX=0.5;exitY=1;exitDx=0;exitDy=0;entryX=0.5;entryY=1;entryDx=0;entryDy=0;entryPerimeter=0;strokeWidth=2;fillColor=#e1d5e7;strokeColor=#FF00FF;" parent="1" source="Yc0Fu8YplYlWr9wA8VVT-87" target="jpZLS2aRkfOWzve02EP6-12" edge="1">
          <mxGeometry relative="1" as="geometry" />
        </mxCell>
        <mxCell id="jpZLS2aRkfOWzve02EP6-15" style="edgeStyle=orthogonalEdgeStyle;rounded=0;orthogonalLoop=1;jettySize=auto;html=1;exitX=0.25;exitY=1;exitDx=0;exitDy=0;entryX=0;entryY=0.5;entryDx=0;entryDy=0;endArrow=none;endFill=0;dashed=1;strokeColor=#FF0080;strokeWidth=2;" parent="1" source="Yc0Fu8YplYlWr9wA8VVT-87" target="jpZLS2aRkfOWzve02EP6-7" edge="1">
          <mxGeometry relative="1" as="geometry">
            <Array as="points">
              <mxPoint x="500" y="1095" />
            </Array>
          </mxGeometry>
        </mxCell>
        <mxCell id="jpZLS2aRkfOWzve02EP6-16" value="&lt;font color=&quot;#ff6229&quot;&gt;服务发现协程&lt;/font&gt;" style="text;html=1;align=center;verticalAlign=middle;whiteSpace=wrap;rounded=0;" parent="1" vertex="1">
          <mxGeometry x="426" y="765" width="104" height="30" as="geometry" />
        </mxCell>
        <mxCell id="jpZLS2aRkfOWzve02EP6-17" value="&lt;font color=&quot;#cc0000&quot;&gt;updater协程&lt;/font&gt;" style="text;html=1;align=center;verticalAlign=middle;whiteSpace=wrap;rounded=0;" parent="1" vertex="1">
          <mxGeometry x="820" y="770" width="80" height="30" as="geometry" />
        </mxCell>
        <mxCell id="jpZLS2aRkfOWzve02EP6-18" value="通过chan updates []*targetgroup.Group&amp;nbsp; &amp;nbsp;传递获取的服务&lt;span style=&quot;background-color: initial;&quot;&gt;地址&lt;/span&gt;" style="text;html=1;align=center;verticalAlign=middle;whiteSpace=wrap;rounded=0;" parent="1" vertex="1">
          <mxGeometry x="500" y="975" width="400" height="30" as="geometry" />
        </mxCell>
        <mxCell id="jpZLS2aRkfOWzve02EP6-20" value="1. 将获取到的&amp;nbsp;[]*targetgroup.Group 更新到legacymanager.Manager的targets字段(暂存)&amp;nbsp;&lt;br&gt;2. 向legacymanager.Manager的triggerSend 发送信号，触发sender协程向scrape组件发送targetgroup" style="text;html=1;align=left;verticalAlign=middle;whiteSpace=wrap;rounded=0;fontSize=14;" parent="1" vertex="1">
          <mxGeometry x="1090" y="790" width="640" height="30" as="geometry" />
        </mxCell>
        <mxCell id="jpZLS2aRkfOWzve02EP6-24" value="&lt;span style=&quot;font-size: 14px; background-color: initial;&quot;&gt;创建provider，追加到&lt;/span&gt;providers字段&lt;br&gt;&lt;div style=&quot;&quot;&gt;&lt;/div&gt;" style="text;html=1;align=left;verticalAlign=middle;whiteSpace=wrap;rounded=0;" parent="1" vertex="1">
          <mxGeometry x="965" y="935" width="235" height="30" as="geometry" />
        </mxCell>
        <mxCell id="jpZLS2aRkfOWzve02EP6-26" value="" style="rounded=0;whiteSpace=wrap;html=1;fillColor=#f9f7ed;strokeColor=#36393d;" parent="1" vertex="1">
          <mxGeometry x="1990" y="120" width="280" height="170" as="geometry" />
        </mxCell>
        <mxCell id="jpZLS2aRkfOWzve02EP6-27" value="Scrape discovery manager" style="text;html=1;align=center;verticalAlign=middle;whiteSpace=wrap;rounded=0;" parent="1" vertex="1">
          <mxGeometry x="2010" y="130" width="240" height="30" as="geometry" />
        </mxCell>
        <mxCell id="jpZLS2aRkfOWzve02EP6-31" style="edgeStyle=orthogonalEdgeStyle;rounded=0;orthogonalLoop=1;jettySize=auto;html=1;exitX=0.5;exitY=1;exitDx=0;exitDy=0;entryX=0.5;entryY=0;entryDx=0;entryDy=0;strokeWidth=2;" parent="1" source="jpZLS2aRkfOWzve02EP6-28" target="jpZLS2aRkfOWzve02EP6-29" edge="1">
          <mxGeometry relative="1" as="geometry" />
        </mxCell>
        <mxCell id="jpZLS2aRkfOWzve02EP6-28" value="discoveryManagerScrape.Run" style="rounded=0;whiteSpace=wrap;html=1;fillColor=#e51400;fontColor=#ffffff;strokeColor=#B20000;" parent="1" vertex="1">
          <mxGeometry x="2034" y="180" width="192" height="60" as="geometry" />
        </mxCell>
        <mxCell id="jpZLS2aRkfOWzve02EP6-48" style="edgeStyle=orthogonalEdgeStyle;rounded=0;orthogonalLoop=1;jettySize=auto;html=1;exitX=0.5;exitY=1;exitDx=0;exitDy=0;entryX=0.5;entryY=0;entryDx=0;entryDy=0;strokeWidth=2;" parent="1" source="jpZLS2aRkfOWzve02EP6-29" target="jpZLS2aRkfOWzve02EP6-35" edge="1">
          <mxGeometry relative="1" as="geometry" />
        </mxCell>
        <mxCell id="jpZLS2aRkfOWzve02EP6-29" value="go&amp;nbsp; &amp;nbsp; &amp;nbsp;legacymanager.Manager.sender()&amp;nbsp;" style="rounded=0;whiteSpace=wrap;html=1;fillColor=#e3c800;fontColor=#000000;strokeColor=#B09500;" parent="1" vertex="1">
          <mxGeometry x="1985" y="355" width="290" height="60" as="geometry" />
        </mxCell>
        <mxCell id="jpZLS2aRkfOWzve02EP6-32" value="启动协程" style="text;html=1;align=center;verticalAlign=middle;whiteSpace=wrap;rounded=0;" parent="1" vertex="1">
          <mxGeometry x="2060" y="310" width="60" height="30" as="geometry" />
        </mxCell>
        <mxCell id="jpZLS2aRkfOWzve02EP6-52" style="edgeStyle=orthogonalEdgeStyle;rounded=0;orthogonalLoop=1;jettySize=auto;html=1;exitX=0.5;exitY=1;exitDx=0;exitDy=0;entryX=1;entryY=0.5;entryDx=0;entryDy=0;fillColor=#f8cecc;strokeColor=#000000;strokeWidth=2;" parent="1" source="jpZLS2aRkfOWzve02EP6-35" target="jpZLS2aRkfOWzve02EP6-41" edge="1">
          <mxGeometry relative="1" as="geometry" />
        </mxCell>
        <mxCell id="jpZLS2aRkfOWzve02EP6-35" value="监听triggerSend" style="rounded=0;whiteSpace=wrap;html=1;" parent="1" vertex="1">
          <mxGeometry x="2065" y="500" width="130" height="60" as="geometry" />
        </mxCell>
        <mxCell id="jpZLS2aRkfOWzve02EP6-39" value="定期轮训&lt;br&gt;检测triggerSend是否有信号" style="text;html=1;align=center;verticalAlign=middle;whiteSpace=wrap;rounded=0;" parent="1" vertex="1">
          <mxGeometry x="2050" y="580" width="186" height="30" as="geometry" />
        </mxCell>
        <mxCell id="jpZLS2aRkfOWzve02EP6-43" style="edgeStyle=orthogonalEdgeStyle;rounded=0;orthogonalLoop=1;jettySize=auto;html=1;exitX=0;exitY=0.5;exitDx=0;exitDy=0;entryX=0;entryY=0.75;entryDx=0;entryDy=0;fillColor=#d80073;strokeColor=#000000;strokeWidth=2;" parent="1" source="jpZLS2aRkfOWzve02EP6-41" target="jpZLS2aRkfOWzve02EP6-35" edge="1">
          <mxGeometry relative="1" as="geometry">
            <Array as="points">
              <mxPoint x="1940" y="640" />
              <mxPoint x="1940" y="545" />
            </Array>
          </mxGeometry>
        </mxCell>
        <mxCell id="jpZLS2aRkfOWzve02EP6-46" style="edgeStyle=orthogonalEdgeStyle;rounded=0;orthogonalLoop=1;jettySize=auto;html=1;exitX=0.5;exitY=1;exitDx=0;exitDy=0;entryX=0;entryY=0.5;entryDx=0;entryDy=0;fillColor=#f8cecc;strokeColor=#000000;strokeWidth=2;" parent="1" source="jpZLS2aRkfOWzve02EP6-41" target="jpZLS2aRkfOWzve02EP6-45" edge="1">
          <mxGeometry relative="1" as="geometry" />
        </mxCell>
        <mxCell id="jpZLS2aRkfOWzve02EP6-41" value="是否有信号" style="rhombus;whiteSpace=wrap;html=1;" parent="1" vertex="1">
          <mxGeometry x="2010" y="600" width="80" height="80" as="geometry" />
        </mxCell>
        <mxCell id="jpZLS2aRkfOWzve02EP6-44" value="NO" style="text;html=1;align=center;verticalAlign=middle;whiteSpace=wrap;rounded=0;" parent="1" vertex="1">
          <mxGeometry x="1950" y="610" width="60" height="30" as="geometry" />
        </mxCell>
        <mxCell id="jpZLS2aRkfOWzve02EP6-47" style="edgeStyle=orthogonalEdgeStyle;rounded=0;orthogonalLoop=1;jettySize=auto;html=1;exitX=1;exitY=0.5;exitDx=0;exitDy=0;entryX=1;entryY=0.5;entryDx=0;entryDy=0;fillColor=#f8cecc;strokeColor=#000000;strokeWidth=2;" parent="1" source="jpZLS2aRkfOWzve02EP6-45" target="jpZLS2aRkfOWzve02EP6-35" edge="1">
          <mxGeometry relative="1" as="geometry" />
        </mxCell>
        <mxCell id="jpZLS2aRkfOWzve02EP6-50" style="edgeStyle=orthogonalEdgeStyle;rounded=0;orthogonalLoop=1;jettySize=auto;html=1;exitX=0.5;exitY=1;exitDx=0;exitDy=0;entryX=1;entryY=0.5;entryDx=0;entryDy=0;fillColor=#dae8fc;strokeColor=#6c8ebf;strokeWidth=3;" parent="1" source="jpZLS2aRkfOWzve02EP6-45" target="Yc0Fu8YplYlWr9wA8VVT-47" edge="1">
          <mxGeometry relative="1" as="geometry">
            <Array as="points">
              <mxPoint x="2250" y="760" />
              <mxPoint x="1910" y="760" />
              <mxPoint x="1910" y="330" />
            </Array>
          </mxGeometry>
        </mxCell>
        <mxCell id="jpZLS2aRkfOWzve02EP6-45" value="将targets 数据封装&lt;br&gt;发送到syncCh" style="rounded=1;whiteSpace=wrap;html=1;" parent="1" vertex="1">
          <mxGeometry x="2190" y="680" width="120" height="60" as="geometry" />
        </mxCell>
        <mxCell id="jpZLS2aRkfOWzve02EP6-51" value="将targets 数据封装，发送到syncCh" style="text;html=1;align=center;verticalAlign=middle;whiteSpace=wrap;rounded=0;" parent="1" vertex="1">
          <mxGeometry x="1985" y="760" width="235" height="30" as="geometry" />
        </mxCell>
        <mxCell id="jpZLS2aRkfOWzve02EP6-54" value="scrapeManager监听discoveryManager的 syncCh&amp;nbsp;&lt;br&gt;更新要scrape的服务信息" style="rounded=1;whiteSpace=wrap;html=1;fillColor=#FF0080;strokeColor=#d79b00;" parent="1" vertex="1">
          <mxGeometry x="780" y="1320" width="280" height="60" as="geometry" />
        </mxCell>
        <mxCell id="jpZLS2aRkfOWzve02EP6-55" value="Text" style="text;html=1;align=center;verticalAlign=middle;whiteSpace=wrap;rounded=0;" parent="1" vertex="1">
          <mxGeometry x="620" y="300" width="60" height="30" as="geometry" />
        </mxCell>
        <mxCell id="jpZLS2aRkfOWzve02EP6-56" value="&lt;font color=&quot;#ff0080&quot; style=&quot;font-size: 16px;&quot;&gt;main函数&lt;/font&gt;" style="text;html=1;align=center;verticalAlign=middle;whiteSpace=wrap;rounded=0;" parent="1" vertex="1">
          <mxGeometry x="170" y="110" width="110" height="30" as="geometry" />
        </mxCell>
        <mxCell id="jpZLS2aRkfOWzve02EP6-57" value="&lt;font color=&quot;#ff0080&quot; style=&quot;font-size: 16px;&quot;&gt;main函数&lt;/font&gt;" style="text;html=1;align=center;verticalAlign=middle;whiteSpace=wrap;rounded=0;" parent="1" vertex="1">
          <mxGeometry x="1974" y="90" width="110" height="30" as="geometry" />
        </mxCell>
        <mxCell id="jpZLS2aRkfOWzve02EP6-58" value="&lt;font color=&quot;#e6e6e6&quot;&gt;TYLTR&lt;/font&gt;" style="text;html=1;align=center;verticalAlign=middle;whiteSpace=wrap;rounded=0;" parent="1" vertex="1">
          <mxGeometry x="930" y="1210" width="60" height="30" as="geometry" />
        </mxCell>
        <mxCell id="jpZLS2aRkfOWzve02EP6-59" value="&lt;font color=&quot;#e6e6e6&quot;&gt;TYLTR&lt;/font&gt;" style="text;html=1;align=center;verticalAlign=middle;whiteSpace=wrap;rounded=0;" parent="1" vertex="1">
          <mxGeometry x="1320" y="1370" width="60" height="30" as="geometry" />
        </mxCell>
        <mxCell id="jpZLS2aRkfOWzve02EP6-60" value="&lt;font color=&quot;#e6e6e6&quot;&gt;TYLTR&lt;/font&gt;" style="text;html=1;align=center;verticalAlign=middle;whiteSpace=wrap;rounded=0;" parent="1" vertex="1">
          <mxGeometry x="1520" y="1115" width="60" height="30" as="geometry" />
        </mxCell>
        <mxCell id="jpZLS2aRkfOWzve02EP6-61" value="&lt;font color=&quot;#e6e6e6&quot;&gt;TYLTR&lt;/font&gt;" style="text;html=1;align=center;verticalAlign=middle;whiteSpace=wrap;rounded=0;" parent="1" vertex="1">
          <mxGeometry x="1700" y="1250" width="60" height="30" as="geometry" />
        </mxCell>
        <mxCell id="jpZLS2aRkfOWzve02EP6-62" value="&lt;font color=&quot;#e6e6e6&quot;&gt;TYLTR&lt;/font&gt;" style="text;html=1;align=center;verticalAlign=middle;whiteSpace=wrap;rounded=0;" parent="1" vertex="1">
          <mxGeometry x="1970" y="995" width="60" height="30" as="geometry" />
        </mxCell>
        <mxCell id="jpZLS2aRkfOWzve02EP6-63" value="&lt;font color=&quot;#e6e6e6&quot;&gt;TYLTR&lt;/font&gt;" style="text;html=1;align=center;verticalAlign=middle;whiteSpace=wrap;rounded=0;" parent="1" vertex="1">
          <mxGeometry x="1974" y="1240" width="60" height="30" as="geometry" />
        </mxCell>
        <mxCell id="jpZLS2aRkfOWzve02EP6-64" value="&lt;font color=&quot;#e6e6e6&quot;&gt;TYLTR&lt;/font&gt;" style="text;html=1;align=center;verticalAlign=middle;whiteSpace=wrap;rounded=0;" parent="1" vertex="1">
          <mxGeometry x="1641" y="870" width="60" height="30" as="geometry" />
        </mxCell>
        <mxCell id="jpZLS2aRkfOWzve02EP6-65" value="&lt;font color=&quot;#e6e6e6&quot;&gt;TYLTR&lt;/font&gt;" style="text;html=1;align=center;verticalAlign=middle;whiteSpace=wrap;rounded=0;" parent="1" vertex="1">
          <mxGeometry x="1645" y="1115" width="60" height="30" as="geometry" />
        </mxCell>
        <mxCell id="jpZLS2aRkfOWzve02EP6-66" value="&lt;font color=&quot;#e6e6e6&quot;&gt;TYLTR&lt;/font&gt;" style="text;html=1;align=center;verticalAlign=middle;whiteSpace=wrap;rounded=0;" parent="1" vertex="1">
          <mxGeometry x="2131" y="860" width="60" height="30" as="geometry" />
        </mxCell>
        <mxCell id="jpZLS2aRkfOWzve02EP6-67" value="&lt;font color=&quot;#e6e6e6&quot;&gt;TYLTR&lt;/font&gt;" style="text;html=1;align=center;verticalAlign=middle;whiteSpace=wrap;rounded=0;" parent="1" vertex="1">
          <mxGeometry x="2135" y="1105" width="60" height="30" as="geometry" />
        </mxCell>
        <mxCell id="jpZLS2aRkfOWzve02EP6-68" value="&lt;font color=&quot;#e6e6e6&quot;&gt;TYLTR&lt;/font&gt;" style="text;html=1;align=center;verticalAlign=middle;whiteSpace=wrap;rounded=0;" parent="1" vertex="1">
          <mxGeometry x="2350" y="992.5" width="60" height="30" as="geometry" />
        </mxCell>
        <mxCell id="jpZLS2aRkfOWzve02EP6-69" value="&lt;font color=&quot;#e6e6e6&quot;&gt;TYLTR&lt;/font&gt;" style="text;html=1;align=center;verticalAlign=middle;whiteSpace=wrap;rounded=0;" parent="1" vertex="1">
          <mxGeometry x="2354" y="1237.5" width="60" height="30" as="geometry" />
        </mxCell>
        <mxCell id="jpZLS2aRkfOWzve02EP6-70" value="&lt;font color=&quot;#e6e6e6&quot;&gt;TYLTR&lt;/font&gt;" style="text;html=1;align=center;verticalAlign=middle;whiteSpace=wrap;rounded=0;" parent="1" vertex="1">
          <mxGeometry x="1150" y="1420" width="60" height="30" as="geometry" />
        </mxCell>
        <mxCell id="jpZLS2aRkfOWzve02EP6-72" value="&lt;font color=&quot;#e6e6e6&quot;&gt;TYLTR&lt;/font&gt;" style="text;html=1;align=center;verticalAlign=middle;whiteSpace=wrap;rounded=0;" parent="1" vertex="1">
          <mxGeometry x="350" y="1410" width="60" height="30" as="geometry" />
        </mxCell>
        <mxCell id="jpZLS2aRkfOWzve02EP6-73" value="&lt;font color=&quot;#e6e6e6&quot;&gt;TYLTR&lt;/font&gt;" style="text;html=1;align=center;verticalAlign=middle;whiteSpace=wrap;rounded=0;" parent="1" vertex="1">
          <mxGeometry x="460" y="1195" width="60" height="30" as="geometry" />
        </mxCell>
        <mxCell id="zir37jMu_xdMQBBzx2-t-1" value="&lt;font style=&quot;font-size: 15px;&quot;&gt;注：&lt;br&gt;&lt;/font&gt;&lt;ul style=&quot;font-size: 15px;&quot;&gt;&lt;li style=&quot;&quot;&gt;&lt;font style=&quot;font-size: 15px;&quot;&gt;黑色 ---&amp;gt;&amp;nbsp; 表示函数执行流程&lt;/font&gt;&lt;/li&gt;&lt;li style=&quot;&quot;&gt;&lt;font style=&quot;font-size: 15px;&quot;&gt;彩色 ---&amp;gt;&amp;nbsp; 表示数据层面上的操作&lt;/font&gt;&lt;/li&gt;&lt;/ul&gt;" style="text;html=1;align=left;verticalAlign=middle;whiteSpace=wrap;rounded=0;fontStyle=1" parent="1" vertex="1">
          <mxGeometry x="260" y="1170" width="280" height="100" as="geometry" />
        </mxCell>
        <mxCell id="q7UE9jWP6zJIfa7E6nDX-1" value="&lt;span style=&quot;box-sizing: border-box; font-weight: var(--base-text-weight-semibold, 600); color: rgb(31, 35, 40); font-family: -apple-system, &amp;quot;system-ui&amp;quot;, &amp;quot;Segoe UI&amp;quot;, &amp;quot;Noto Sans&amp;quot;, Helvetica, Arial, sans-serif, &amp;quot;Apple Color Emoji&amp;quot;, &amp;quot;Segoe UI Emoji&amp;quot;; font-size: 16px; text-align: left; background-color: rgb(255, 255, 255);&quot;&gt;kubernetes&lt;/span&gt;" style="rounded=0;whiteSpace=wrap;html=1;" parent="1" vertex="1">
          <mxGeometry x="190" y="760" width="120" height="40" as="geometry" />
        </mxCell>
        <mxCell id="q7UE9jWP6zJIfa7E6nDX-2" value="&lt;span style=&quot;color: rgb(31, 35, 40); font-family: -apple-system, &amp;quot;system-ui&amp;quot;, &amp;quot;Segoe UI&amp;quot;, &amp;quot;Noto Sans&amp;quot;, Helvetica, Arial, sans-serif, &amp;quot;Apple Color Emoji&amp;quot;, &amp;quot;Segoe UI Emoji&amp;quot;; font-size: 16px; text-align: left; background-color: rgb(255, 255, 255);&quot;&gt;ec2&lt;/span&gt;" style="rounded=0;whiteSpace=wrap;html=1;" parent="1" vertex="1">
          <mxGeometry x="190" y="800" width="120" height="40" as="geometry" />
        </mxCell>
        <mxCell id="q7UE9jWP6zJIfa7E6nDX-3" value="&lt;span style=&quot;color: rgb(31, 35, 40); font-family: -apple-system, &amp;quot;system-ui&amp;quot;, &amp;quot;Segoe UI&amp;quot;, &amp;quot;Noto Sans&amp;quot;, Helvetica, Arial, sans-serif, &amp;quot;Apple Color Emoji&amp;quot;, &amp;quot;Segoe UI Emoji&amp;quot;; font-size: 16px; text-align: left; background-color: rgb(255, 255, 255);&quot;&gt;eureka&lt;/span&gt;" style="rounded=0;whiteSpace=wrap;html=1;" parent="1" vertex="1">
          <mxGeometry x="190" y="835" width="120" height="40" as="geometry" />
        </mxCell>
        <mxCell id="q7UE9jWP6zJIfa7E6nDX-4" value="&lt;div style=&quot;text-align: left;&quot;&gt;&lt;font face=&quot;-apple-system, system-ui, Segoe UI, Noto Sans, Helvetica, Arial, sans-serif, Apple Color Emoji, Segoe UI Emoji&quot; color=&quot;#1f2328&quot;&gt;&lt;span style=&quot;font-size: 16px; background-color: rgb(255, 255, 255);&quot;&gt;......&lt;/span&gt;&lt;/font&gt;&lt;/div&gt;" style="rounded=0;whiteSpace=wrap;html=1;" parent="1" vertex="1">
          <mxGeometry x="190" y="870" width="120" height="40" as="geometry" />
        </mxCell>
        <mxCell id="q7UE9jWP6zJIfa7E6nDX-6" value="" style="shape=curlyBracket;whiteSpace=wrap;html=1;rounded=1;flipH=1;labelPosition=right;verticalLabelPosition=middle;align=left;verticalAlign=middle;" parent="1" vertex="1">
          <mxGeometry x="320" y="770" width="20" height="120" as="geometry" />
        </mxCell>
        <mxCell id="q7UE9jWP6zJIfa7E6nDX-7" style="edgeStyle=orthogonalEdgeStyle;rounded=0;orthogonalLoop=1;jettySize=auto;html=1;exitX=0;exitY=0.5;exitDx=0;exitDy=0;entryX=0.1;entryY=0.5;entryDx=0;entryDy=0;entryPerimeter=0;" parent="1" source="Yc0Fu8YplYlWr9wA8VVT-87" target="q7UE9jWP6zJIfa7E6nDX-6" edge="1">
          <mxGeometry relative="1" as="geometry" />
        </mxCell>
        <mxCell id="q7UE9jWP6zJIfa7E6nDX-8" value="各种服务发现协议 具体实现" style="text;html=1;align=center;verticalAlign=middle;whiteSpace=wrap;rounded=0;" parent="1" vertex="1">
          <mxGeometry x="340" y="845" width="106" height="30" as="geometry" />
        </mxCell>
      </root>
    </mxGraphModel>
  </diagram>
</mxfile>
